<svg width="20" height="20" viewBox="0 0 20 20" fill="none" xmlns="http://www.w3.org/2000/svg">
<g clip-path="url(#clip0)">
<rect width="20" height="20" fill="white" fill-opacity="0.65"/>
<path d="M18.3333 5.83329H12.5V4.16663H18.3333V5.83329ZM19.7717 14.1666C19.4033 15.2475 18.0808 16.6666 15.5208 16.6666C12.9592 16.6666 10.8842 15.2258 10.8842 11.9375C10.8842 8.67913 12.8217 7.00413 15.4392 7.00413C18.0075 7.00413 19.5758 8.48913 19.9183 10.6925C19.9833 11.1141 20.0092 11.6825 19.9975 12.4758H13.3083C13.4167 15.1516 16.2108 15.2358 17.1317 14.1666H19.7717ZM13.3667 10.8333H17.5042C17.4167 9.54413 16.5575 8.98413 15.44 8.98413C14.2183 8.98413 13.5425 9.62413 13.3667 10.8333ZM5.38833 16.6566H0V4.18413H5.79417C10.3575 4.25163 10.4442 8.72079 8.06083 9.93913C10.945 10.9891 11.0417 16.6566 5.38833 16.6566ZM2.5 9.16663H5.48667C7.57667 9.16663 7.90833 6.66663 5.22667 6.66663H2.5V9.16663ZM5.32583 11.6666H2.5V14.18H5.28417C7.83 14.18 7.67417 11.6666 5.32583 11.6666Z" fill="black" fill-opacity="0.65"/>
</g>
<defs>
<clipPath id="clip0">
<rect width="20" height="20" fill="white"/>
</clipPath>
</defs>
</svg>
